/* XPM */
static char *_a1a546931b344c38309139c4ffde5b3VK7K6G05pvLL9bES[] = {
/* columns rows colors chars-per-pixel */
"32 32 12 1 ",
"  c None",
". c #241527",
"X c #341C27",
"o c #19332D",
"O c #172038",
"+ c #4D2B32",
"@ c #25562E",
"# c #7A4841",
"$ c #AD7757",
"% c #468232",
"& c #75A743",
"* c #C09473",
/* pixels */
"                                ",
"                                ",
"                                ",
"                                ",
"                                ",
"                                ",
"                                ",
"                                ",
"                                ",
"                                ",
"            &&                  ",
"            @%&        &        ",
"            @%%   &    %        ",
"         && @@%  @#+X# @%       ",
"        &% % @@ +##*+#*$@       ",
"        @  @@% +##*$+***$$      ",
"      && %%%OXX+#*$$X**$$#      ",
"     &&o@%%OX##**$$X**$##+  %%  ",
"    @&%O+###****#$+**$#### %@%  ",
" &&o%%O###*****+X$**##+##+ @o@  ",
"&&o%@o##*****$+X$**###+++X @O&  ",
"@oO@#$#++**##++$*#####.+..oO&%  ",
" @ @$+X+++#$$$###+#.+++XXXo&@@  ",
" @@ooX#X#++$$####+...XXXX.o&@@  ",
" oOooX+#X#+#$###+...X+...o@%@o% ",
" &oo+X#XX+####+..+X++XXO%o%%o%  ",
"  &o@O#+.+#+#+..##+.XXooo@%@%o  ",
"  %@oo+#+X#.+.+#++.XoOooo%@%%o  ",
" o@%ooO+#+#XX.#+.Xo%o    o@%o   ",
" o@%o  o++OXX++Xoo@O            ",
"  oo    ooXOXX  ooOo            ",
"                                "
};
