/* XPM */
static char *ae08db9ebaa244c5c0928114817e4fe4ZcPZs177x5ndTkNE[] = {
/* columns rows colors chars-per-pixel */
"32 32 7 1 ",
"  c None",
". c #10141F",
"X c #241527",
"o c #341C27",
"O c #4D2B32",
"+ c #7A4841",
"@ c #AD7757",
/* pixels */
"                                ",
"                                ",
"                                ",
"                                ",
"                                ",
"                                ",
"                                ",
"                                ",
"             @@@@o              ",
"            OO@@@@oO            ",
"          O+OO+@@@@OO           ",
"        @++++oOO+++@@@@         ",
"      @@++++++oo+++++@@@OO      ",
"    O@@++++++++++++++++@@@@O    ",
"  @@@@@++++++++++@@@@++++@@@OO  ",
"@@@@@@@@++++++@@@@@@@@@+++@@@oOO",
"o@@@@@@@+++++@@@@@@@@@@@++@@@ooO",
"oooo@@@@@+++++@@@@@@@@@@@@@OOooo",
" XOOoo@@@@@+++++@@@@@@+@@@Oooooo",
"XOOOOoo@@@OOOO@@@@@@@@@@oXXooooo",
"ooOOOOOoooo++@@@@@@@@@OOXooooooo",
"ooOOOOOOOooOo@@@@@@@@OXXXooooooX",
"oooOOOOOOOoOOooO++OOOXX.XoooooXX",
"oOOooOOoooX+OOOoooooXX...XoooXX.",
"oXOOOooooXX+OOOoooooX.ooo.XXX...",
"  XXOOooXXXOOOOOOoooXXoooo....  ",
"    XXoOOXX+OOOOoooXXooooXXX    ",
"      XOOOXXOOOOoooX.XooXX      ",
"        oooXXOOoooXX..XX        ",
"          ooooOOoXX..XX         ",
"            OoXXXX..            ",
"              oX..              "
};
