/* XPM */
static char *baa441fae2164dc8e620807f1674fa82FG1yzx9ilPtoUG56[] = {
/* columns rows colors chars-per-pixel */
"32 32 11 1 ",
"  c None",
". c #172038",
"X c #293957",
"o c #253A5E",
"O c #3C5E8B",
"+ c #4F8FBA",
"@ c #73BED3",
"# c #8FC2C5",
"$ c #96D0D5",
"% c #9CD7D9",
"& c #A4DDDB",
/* pixels */
"                                ",
"                                ",
"                                ",
"                                ",
"                                ",
"                                ",
"                                ",
"                                ",
"               @@               ",
"              @@@@@             ",
"            @@@@@@@@            ",
"           @@@@@@@@@@@          ",
"         %@%%@@@@@@@@@&         ",
"     @@@@@@@@%%@@@@%@@@@        ",
"    @@@@@@@@@@@%@@%@@@@@@@      ",
"  @@@@@@@@@@@@@@%%@@@@@@@@@@@@  ",
"@@@@@%@@@@%%%%++$$@@@@%@@@@@@@@ ",
"@@@%@@@%%%@@++$$++$+%%@@@@@@@@@ ",
"@@@@@@@@%@+++++++++$++@@@@@@@@@@",
"@@@@@@@@+$$+++++++$+$$$+@@@@@@@@",
"@@@@@@++$$$$++++$$+++++$$+@@@@@@",
"@@@@++OO+++$$$$$++++++++XX++@@@@",
"@@++OOOOOO+++$$$$++++XXXXXXX++@@",
"++OOOOOOOOO++++++$#XXXXXXXXXXX++",
"ooOOOOOOOOOOOO+++XXXXXXXXXXXXX..",
"  ooOOOOOOOOOOOOXXXXXXXXXXXX..  ",
"    ooOOOOOOOOOOXXXXXXXXXX..    ",
"      ooOOOOOOOOXXXXXXXX..      ",
"        ooOOOOOOXXXXXX..        ",
"          ooOOOOXXXX..          ",
"            ooOXXX..            ",
"              o...              "
};
