/* XPM */
static char *_9aa603994ae4cc394b3d1034cd9466eMvS5DqTtSWeNkpt6[] = {
/* columns rows colors chars-per-pixel */
"32 32 5 1 ",
"  c None",
". c #253A5E",
"X c #3C5E8B",
"o c #4F8FBA",
"O c #73BED3",
/* pixels */
"                                ",
"                                ",
"                                ",
"                                ",
"                                ",
"                                ",
"                                ",
"                                ",
"                                ",
"                                ",
"                                ",
"                                ",
"            ooOOOOo             ",
"           OOOOOOOOOO           ",
"         oOOOOOOOOOOOOO         ",
"       OOOOOOOOOOOOOOOOOO       ",
"     OOOOOOOOOOOOOOOOOOOOOO     ",
"   oOOOOOOOOOOOOOOOOOOOOOOOOO   ",
" oOOOOOOOOOOOOOOOOOOOOOOOOOOOOo ",
"oOOOOOOOOOOOOOOOOOOOOOOOOOOOOOOo",
"oOOOOOOOOOOOOOOOOOOOOOOOOOOOOOOX",
"ooOOOOOOOOOOOOOOOOOOOOOOOOOOOOXX",
"XooOOOOOOOOOOOOOOOOOOOOOOOOOXXX.",
"XXoooOOOOOOOOOOOOOOOOOOOOOXXXX..",
"XXXoooOOOOOOOOOOOOOOOOOOOXXX....",
"  XXXooooOOOOOOOOOOOOOOXXXX...  ",
"    XXooooOOOOOOOOOOOXXXX...    ",
"      XXoooooOOOOOOXXXXX..      ",
"        XXooooooXXXXX...        ",
"          XXXXXoXX....          ",
"            XXXX....            ",
"              XX..              "
};
